<svg width="180" height="58" viewBox="0 0 180 58" fill="none" xmlns="http://www.w3.org/2000/svg">
<path d="M179 50.6591C179 53.7107 176.709 56.1826 173.874 56.1826H6.13243C3.2995 56.1826 1 53.7107 1 50.6591V6.61081C1 3.56062 3.2995 1.08008 6.13243 1.08008H173.873C176.709 1.08008 178.999 3.56062 178.999 6.61081L179 50.6591Z" fill="black"/>
<path d="M173.333 1.14703C176.42 1.14703 178.932 3.84373 178.932 7.15778V50.1044C178.932 53.4185 176.42 56.1152 173.333 56.1152H6.66667C3.58 56.1152 1.06833 53.4185 1.06833 50.1044V7.15778C1.06833 3.84373 3.58 1.14703 6.66667 1.14703H173.333ZM173.333 2.21777e-06H6.66667C3.00167 2.21777e-06 0 3.22279 0 7.15778V50.1044C0 54.0394 3.00167 57.2622 6.66667 57.2622H173.333C176.998 57.2622 180 54.0394 180 50.1044V7.15778C180 3.22279 176.998 2.21777e-06 173.333 2.21777e-06Z" fill="#A6A6A6"/>
<path d="M40.1707 28.322C40.132 23.708 43.6893 21.4633 43.852 21.3588C41.8373 18.2051 38.7147 17.7742 37.6173 17.7398C34.9947 17.4435 32.4507 19.4248 31.1147 19.4248C29.752 19.4248 27.6947 17.7685 25.4773 17.8171C22.624 17.8644 19.9547 19.6381 18.4907 22.3924C15.4693 28.0084 17.7227 36.2614 20.6173 40.8009C22.0653 43.0241 23.7573 45.5065 25.972 45.4191C28.1387 45.3232 28.948 43.936 31.5627 43.936C34.1533 43.936 34.9133 45.4191 37.172 45.3633C39.4973 45.3232 40.9613 43.1301 42.3587 40.8868C44.032 38.3386 44.704 35.8291 44.7307 35.7003C44.676 35.6802 40.2147 33.8521 40.1707 28.322Z" fill="white"/>
<path d="M35.904 14.7536C37.0693 13.1889 37.8667 11.0601 37.6453 8.8999C35.9587 8.98007 33.8493 10.1525 32.6347 11.6829C31.56 13.0314 30.6 15.2417 30.848 17.3204C32.7427 17.4721 34.688 16.2939 35.904 14.7536Z" fill="white"/>
<path d="M71.5267 45.0996H68.4987L66.84 39.5038H61.0747L59.4947 45.0996H56.5467L62.2587 26.0488H65.7867L71.5267 45.0996ZM66.34 37.1561L64.84 32.1815C64.6813 31.6733 64.384 30.4765 63.9453 28.5927H63.892C63.7173 29.4029 63.436 30.5997 63.0493 32.1815L61.576 37.1561H66.34Z" fill="white"/>
<path d="M86.216 38.0623C86.216 40.3986 85.628 42.2453 84.452 43.601C83.3987 44.8078 82.0907 45.4105 80.5293 45.4105C78.844 45.4105 77.6333 44.7606 76.896 43.4607H76.8427V50.6973H74V35.8849C74 34.4161 73.964 32.9087 73.8947 31.3626H76.3947L76.5533 33.54H76.6067C77.5547 31.8994 78.9933 31.0806 80.924 31.0806C82.4333 31.0806 83.6933 31.7205 84.7013 33.0017C85.712 34.2844 86.216 35.9708 86.216 38.0623ZM83.32 38.174C83.32 36.8369 83.04 35.7346 82.4773 34.867C81.8627 33.9623 81.0373 33.5099 80.0027 33.5099C79.3013 33.5099 78.664 33.7619 78.0947 34.2586C77.524 34.7597 77.1506 35.4139 76.976 36.2242C76.888 36.6021 76.844 36.9113 76.844 37.1547V39.4452C76.844 40.4444 77.1293 41.2876 77.7 41.9762C78.2707 42.6648 79.012 43.0083 79.924 43.0083C80.9947 43.0083 81.828 42.5646 82.424 41.6799C83.0213 40.7937 83.32 39.6256 83.32 38.174Z" fill="white"/>
<path d="M100.932 38.0623C100.932 40.3986 100.344 42.2453 99.1667 43.601C98.1147 44.8078 96.8067 45.4105 95.2453 45.4105C93.56 45.4105 92.3493 44.7606 91.6133 43.4607H91.56V50.6973H88.7173V35.8849C88.7173 34.4161 88.6813 32.9087 88.612 31.3626H91.112L91.2707 33.54H91.324C92.2707 31.8994 93.7093 31.0806 95.6413 31.0806C97.1493 31.0806 98.4093 31.7205 99.42 33.0017C100.427 34.2844 100.932 35.9708 100.932 38.0623ZM98.036 38.174C98.036 36.8369 97.7547 35.7346 97.192 34.867C96.5773 33.9623 95.7547 33.5099 94.7187 33.5099C94.016 33.5099 93.38 33.7619 92.8093 34.2586C92.2387 34.7597 91.8667 35.4139 91.692 36.2242C91.6053 36.6021 91.56 36.9113 91.56 37.1547V39.4452C91.56 40.4444 91.8453 41.2876 92.4133 41.9762C92.984 42.6633 93.7253 43.0083 94.64 43.0083C95.7107 43.0083 96.544 42.5646 97.14 41.6799C97.7373 40.7937 98.036 39.6256 98.036 38.174Z" fill="white"/>
<path d="M117.385 39.7576C117.385 41.3782 116.861 42.6967 115.809 43.7145C114.653 44.8269 113.044 45.3823 110.976 45.3823C109.067 45.3823 107.536 44.9872 106.377 44.1955L107.036 41.6516C108.284 42.4619 109.653 42.8685 111.145 42.8685C112.216 42.8685 113.049 42.6079 113.648 42.0897C114.244 41.5714 114.541 40.8757 114.541 40.0081C114.541 39.2351 114.296 38.5837 113.804 38.0554C113.315 37.5272 112.497 37.0362 111.356 36.5823C108.249 35.3383 106.697 33.5159 106.697 31.1194C106.697 29.5532 107.241 28.2691 108.331 27.2698C109.416 26.2692 110.864 25.7695 112.675 25.7695C114.289 25.7695 115.631 26.0716 116.701 26.6743L115.991 29.1624C114.991 28.5783 113.86 28.2863 112.595 28.2863C111.595 28.2863 110.813 28.5511 110.253 29.0779C109.78 29.5489 109.543 30.123 109.543 30.803C109.543 31.556 109.813 32.1788 110.357 32.6684C110.831 33.1207 111.691 33.6104 112.939 34.1386C114.465 34.7986 115.587 35.5702 116.308 36.4549C117.027 37.3368 117.385 38.4405 117.385 39.7576Z" fill="white"/>
<path d="M126.784 33.6532H123.651V40.3227C123.651 42.0191 124.203 42.8666 125.309 42.8666C125.817 42.8666 126.239 42.8193 126.572 42.7249L126.651 45.0425C126.091 45.2673 125.353 45.3804 124.44 45.3804C123.317 45.3804 122.44 45.0125 121.807 44.2781C121.176 43.5423 120.859 42.3083 120.859 40.5747V33.6503H118.992V31.3599H120.859V28.8447L123.651 27.9399V31.3599H126.784V33.6532Z" fill="white"/>
<path d="M140.921 38.1182C140.921 40.2298 140.359 41.9634 139.236 43.3191C138.059 44.7149 136.496 45.4106 134.548 45.4106C132.671 45.4106 131.176 44.7421 130.061 43.405C128.947 42.0679 128.389 40.3801 128.389 38.3458C128.389 36.2171 128.963 34.4734 130.113 33.1177C131.261 31.7606 132.811 31.082 134.759 31.082C136.636 31.082 138.147 31.7506 139.287 33.0891C140.377 34.3875 140.921 36.0639 140.921 38.1182ZM137.972 38.217C137.972 36.95 137.72 35.8635 137.209 34.9573C136.613 33.8607 135.761 33.3139 134.657 33.3139C133.515 33.3139 132.647 33.8621 132.051 34.9573C131.54 35.8649 131.288 36.9687 131.288 38.2743C131.288 39.5412 131.54 40.6278 132.051 41.5325C132.665 42.6291 133.524 43.176 134.632 43.176C135.717 43.176 136.569 42.6176 137.184 41.5039C137.708 40.5805 137.972 39.4825 137.972 38.217Z" fill="white"/>
<path d="M150.161 34.0467C149.88 33.9909 149.58 33.9623 149.265 33.9623C148.265 33.9623 147.492 34.3674 146.948 35.1791C146.475 35.8948 146.237 36.7996 146.237 37.8918V45.0996H143.396L143.423 35.6887C143.423 34.1054 143.387 32.6638 143.316 31.364H145.792L145.896 33.9923H145.975C146.275 33.089 146.748 32.3618 147.396 31.8164C148.029 31.3254 148.713 31.0806 149.451 31.0806C149.713 31.0806 149.951 31.1006 150.161 31.1364V34.0467Z" fill="white"/>
<path d="M162.875 37.5811C162.875 38.128 162.841 38.589 162.771 38.9655H154.243C154.276 40.3226 154.688 41.3605 155.48 42.0762C156.199 42.7161 157.128 43.0368 158.269 43.0368C159.532 43.0368 160.684 42.8206 161.72 42.3869L162.165 44.5056C160.955 45.0725 159.525 45.3545 157.876 45.3545C155.892 45.3545 154.335 44.7275 153.201 43.4749C152.071 42.2222 151.504 40.5402 151.504 38.4301C151.504 36.3586 152.031 34.6336 153.085 33.2579C154.189 31.7891 155.681 31.0547 157.559 31.0547C159.403 31.0547 160.799 31.7891 161.747 33.2579C162.497 34.4246 162.875 35.8676 162.875 37.5811ZM160.164 36.7895C160.183 35.8848 159.997 35.1031 159.612 34.4432C159.12 33.5943 158.364 33.1705 157.347 33.1705C156.417 33.1705 155.661 33.5842 155.084 34.4145C154.611 35.0745 154.329 35.8661 154.243 36.7881H160.164V36.7895Z" fill="white"/>
<path d="M65.4 14.3281C65.4 16.0129 64.9293 17.2812 63.9893 18.133C63.1187 18.9188 61.8813 19.3125 60.2787 19.3125C59.484 19.3125 58.804 19.2753 58.2347 19.2008V9.99497C58.9773 9.86614 59.7773 9.80029 60.6413 9.80029C62.168 9.80029 63.3187 10.1567 64.0947 10.8696C64.964 11.6755 65.4 12.8279 65.4 14.3281ZM63.9267 14.3696C63.9267 13.2774 63.6573 12.4399 63.1187 11.8559C62.58 11.2733 61.7933 10.9813 60.7573 10.9813C60.3173 10.9813 59.9427 11.0128 59.632 11.0786V18.0771C59.804 18.1058 60.1187 18.1186 60.576 18.1186C61.6453 18.1186 62.4707 17.7994 63.052 17.161C63.6333 16.5225 63.9267 15.5921 63.9267 14.3696Z" fill="white"/>
<path d="M73.212 15.8003C73.212 16.8381 72.936 17.6884 72.384 18.3555C71.8053 19.0412 71.0387 19.3833 70.0813 19.3833C69.1587 19.3833 68.424 19.0555 67.876 18.397C67.3293 17.74 67.056 16.9111 67.056 15.912C67.056 14.867 67.3373 14.0095 67.9027 13.3439C68.468 12.6783 69.228 12.3447 70.1853 12.3447C71.108 12.3447 71.8493 12.6725 72.4107 13.3296C72.944 13.968 73.212 14.7926 73.212 15.8003ZM71.7627 15.849C71.7627 15.2263 71.6373 14.6923 71.388 14.2472C71.0947 13.7089 70.6773 13.4398 70.1347 13.4398C69.5733 13.4398 69.1467 13.7089 68.8533 14.2472C68.6027 14.6923 68.4787 15.2349 68.4787 15.8762C68.4787 16.4989 68.604 17.0328 68.8533 17.478C69.156 18.0162 69.5773 18.2854 70.1213 18.2854C70.6547 18.2854 71.0733 18.0119 71.3747 17.4637C71.6333 17.0099 71.7627 16.4717 71.7627 15.849Z" fill="white"/>
<path d="M83.6867 12.4814L81.72 19.23H80.44L79.6253 16.2995C79.4187 15.568 79.2507 14.8407 79.12 14.1192H79.0947C78.9733 14.8608 78.8053 15.5866 78.5893 16.2995L77.724 19.23H76.4293L74.58 12.4814H76.016L76.7267 15.6896C76.8987 16.4484 77.04 17.1713 77.1533 17.8556H77.1787C77.2827 17.2916 77.4547 16.5729 77.6973 15.704L78.5893 12.4829H79.728L80.5827 15.6352C80.7893 16.404 80.9573 17.1441 81.0867 17.8571H81.1253C81.22 17.1628 81.3627 16.4226 81.552 15.6352L82.3147 12.4829H83.6867V12.4814Z" fill="white"/>
<path d="M90.9307 19.2305H89.5333V15.3652C89.5333 14.1742 89.112 13.5786 88.2667 13.5786C87.852 13.5786 87.5173 13.7418 87.2573 14.0697C87 14.3975 86.8693 14.784 86.8693 15.2264V19.229H85.472V14.4104C85.472 13.8177 85.4547 13.1749 85.4213 12.4792H86.6493L86.7147 13.5343H86.7533C86.916 13.2064 87.1587 12.9359 87.4773 12.7197C87.856 12.4677 88.28 12.3403 88.744 12.3403C89.3307 12.3403 89.8187 12.5436 90.2067 12.9516C90.6893 13.4512 90.9307 14.1971 90.9307 15.1877V19.2305Z" fill="white"/>
<path d="M94.784 19.2305H93.388V9.38574H94.784V19.2305Z" fill="white"/>
<path d="M103.011 15.8003C103.011 16.8381 102.735 17.6884 102.183 18.3555C101.604 19.0412 100.836 19.3833 99.88 19.3833C98.956 19.3833 98.2213 19.0555 97.6747 18.397C97.128 17.74 96.8547 16.9111 96.8547 15.912C96.8547 14.867 97.136 14.0095 97.7013 13.3439C98.2667 12.6783 99.0267 12.3447 99.9827 12.3447C100.907 12.3447 101.647 12.6725 102.209 13.3296C102.743 13.968 103.011 14.7926 103.011 15.8003ZM101.56 15.849C101.56 15.2263 101.435 14.6923 101.185 14.2472C100.893 13.7089 100.475 13.4398 99.9333 13.4398C99.3707 13.4398 98.944 13.7089 98.652 14.2472C98.4013 14.6923 98.2773 15.2349 98.2773 15.8762C98.2773 16.4989 98.4027 17.0328 98.652 17.478C98.9547 18.0162 99.376 18.2854 99.92 18.2854C100.453 18.2854 100.871 18.0119 101.172 17.4637C101.432 17.0099 101.56 16.4717 101.56 15.849Z" fill="white"/>
<path d="M109.773 19.2301H108.519L108.415 18.4528H108.376C107.947 19.0727 107.335 19.3833 106.54 19.3833C105.947 19.3833 105.467 19.1786 105.105 18.7721C104.777 18.4027 104.613 17.9432 104.613 17.3978C104.613 16.5733 104.933 15.9449 105.577 15.5097C106.22 15.0746 107.124 14.8613 108.288 14.8713V14.7453C108.288 13.8564 107.853 13.4126 106.983 13.4126C106.363 13.4126 105.816 13.5801 105.344 13.9122L105.06 12.9273C105.644 12.5394 106.365 12.3447 107.216 12.3447C108.859 12.3447 109.683 13.2752 109.683 15.1361V17.6212C109.683 18.2954 109.713 18.8322 109.773 19.2301ZM108.323 16.9111V15.8705C106.781 15.8418 106.011 16.2956 106.011 17.2304C106.011 17.5825 106.099 17.8459 106.279 18.022C106.459 18.198 106.688 18.2854 106.961 18.2854C107.268 18.2854 107.555 18.1809 107.816 17.9733C108.079 17.7643 108.24 17.4995 108.3 17.1745C108.315 17.1015 108.323 17.0128 108.323 16.9111Z" fill="white"/>
<path d="M117.713 19.2301H116.473L116.408 18.1465H116.369C115.973 18.971 115.299 19.3833 114.351 19.3833C113.593 19.3833 112.963 19.0641 112.463 18.4256C111.963 17.7872 111.713 16.9583 111.713 15.9406C111.713 14.8483 111.984 13.9637 112.528 13.288C113.055 12.6581 113.7 12.3432 114.468 12.3432C115.312 12.3432 115.903 12.6481 116.239 13.2594H116.265V9.38574H117.664V17.4121C117.664 18.0692 117.68 18.6747 117.713 19.2301ZM116.265 16.3843V15.2592C116.265 15.0645 116.252 14.907 116.227 14.7868C116.148 14.426 115.979 14.1226 115.721 13.8778C115.461 13.633 115.148 13.5099 114.787 13.5099C114.265 13.5099 113.857 13.7318 113.557 14.177C113.26 14.6221 113.109 15.1905 113.109 15.8847C113.109 16.5518 113.252 17.0929 113.539 17.5095C113.841 17.9532 114.249 18.1751 114.76 18.1751C115.219 18.1751 115.585 17.9905 115.864 17.6197C116.133 17.2776 116.265 16.8653 116.265 16.3843Z" fill="white"/>
<path d="M129.664 15.8003C129.664 16.8381 129.388 17.6884 128.836 18.3555C128.257 19.0412 127.492 19.3833 126.533 19.3833C125.612 19.3833 124.877 19.0555 124.328 18.397C123.781 17.74 123.508 16.9111 123.508 15.912C123.508 14.867 123.789 14.0095 124.355 13.3439C124.92 12.6783 125.68 12.3447 126.639 12.3447C127.56 12.3447 128.303 12.6725 128.863 13.3296C129.396 13.968 129.664 14.7926 129.664 15.8003ZM128.216 15.849C128.216 15.2263 128.091 14.6923 127.841 14.2472C127.547 13.7089 127.131 13.4398 126.587 13.4398C126.027 13.4398 125.6 13.7089 125.305 14.2472C125.055 14.6923 124.931 15.2349 124.931 15.8762C124.931 16.4989 125.056 17.0328 125.305 17.478C125.608 18.0162 126.029 18.2854 126.573 18.2854C127.107 18.2854 127.527 18.0119 127.828 17.4637C128.085 17.0099 128.216 16.4717 128.216 15.849Z" fill="white"/>
<path d="M137.177 19.2305H135.781V15.3652C135.781 14.1742 135.36 13.5786 134.513 13.5786C134.099 13.5786 133.764 13.7418 133.505 14.0697C133.247 14.3975 133.117 14.784 133.117 15.2264V19.229H131.719V14.4104C131.719 13.8177 131.703 13.1749 131.669 12.4792H132.896L132.961 13.5343H133C133.164 13.2064 133.407 12.9359 133.724 12.7197C134.104 12.4677 134.527 12.3403 134.992 12.3403C135.577 12.3403 136.065 12.5436 136.453 12.9516C136.937 13.4512 137.177 14.1971 137.177 15.1877V19.2305Z" fill="white"/>
<path d="M146.581 13.6055H145.043V16.8836C145.043 17.7167 145.316 18.1333 145.857 18.1333C146.108 18.1333 146.316 18.1104 146.48 18.0631L146.516 19.2012C146.24 19.3128 145.877 19.3687 145.431 19.3687C144.879 19.3687 144.449 19.1883 144.139 18.8276C143.827 18.4668 143.672 17.8599 143.672 17.0081V13.6055H142.753V12.4818H143.672V11.245L145.041 10.8013V12.4804H146.58V13.6055H146.581Z" fill="white"/>
<path d="M153.979 19.2305H152.58V15.3939C152.58 14.1843 152.159 13.5787 151.315 13.5787C150.667 13.5787 150.224 13.9295 149.981 14.6309C149.94 14.7784 149.916 14.9587 149.916 15.1706V19.229H148.52V9.38574H149.916V13.4528H149.943C150.383 12.7127 151.013 12.3433 151.831 12.3433C152.409 12.3433 152.888 12.5466 153.268 12.9546C153.741 13.4628 153.979 14.2186 153.979 15.2179V19.2305Z" fill="white"/>
<path d="M161.609 15.5369C161.609 15.8061 161.591 16.0323 161.557 16.2169H157.367C157.385 16.8841 157.585 17.3923 157.973 17.7445C158.328 18.0594 158.785 18.2169 159.345 18.2169C159.965 18.2169 160.531 18.1109 161.04 17.8976L161.259 18.9398C160.663 19.2176 159.961 19.3564 159.149 19.3564C158.176 19.3564 157.409 19.0487 156.855 18.4331C156.297 17.8175 156.021 16.9914 156.021 15.9549C156.021 14.9371 156.279 14.0896 156.797 13.4138C157.339 12.6923 158.071 12.3315 158.995 12.3315C159.899 12.3315 160.585 12.6923 161.049 13.4138C161.424 13.9865 161.609 14.6951 161.609 15.5369ZM160.276 15.1489C160.287 14.7037 160.195 14.32 160.005 13.9965C159.763 13.5799 159.393 13.3709 158.893 13.3709C158.437 13.3709 158.065 13.5742 157.781 13.9822C157.549 14.3072 157.412 14.6951 157.367 15.1489H160.276Z" fill="white"/>
</svg>
