<svg width="180" height="58" viewBox="0 0 180 58" fill="none" xmlns="http://www.w3.org/2000/svg">
<path d="M173.095 57.2622H6.6575C2.99754 57.2622 0 54.0394 0 50.1044V7.15778C0 3.22279 2.99754 2.21777e-06 6.6575 2.21777e-06H173.095C176.755 2.21777e-06 179.753 3.22279 179.753 7.15778V50.1044C179.753 54.0394 176.755 57.2622 173.095 57.2622Z" fill="black"/>
<path d="M173.095 1.14703C176.177 1.14703 178.686 3.84373 178.686 7.15778V50.1044C178.686 53.4185 176.177 56.1152 173.095 56.1152H6.6575C3.57508 56.1152 1.06686 53.4185 1.06686 50.1044V7.15778C1.06686 3.84373 3.57508 1.14703 6.6575 1.14703H173.095ZM173.095 2.21777e-06H6.6575C2.99754 2.21777e-06 0 3.22279 0 7.15778V50.1044C0 54.0394 2.99754 57.2622 6.6575 57.2622H173.095C176.755 57.2622 179.753 54.0394 179.753 50.1044V7.15778C179.753 3.22279 176.755 2.21777e-06 173.095 2.21777e-06Z" fill="#A6A6A6"/>
<path d="M63.1364 14.6647C63.1364 15.8602 62.8035 16.8177 62.1478 17.5317C61.3938 18.3783 60.4118 18.8042 59.2085 18.8042C58.0584 18.8042 57.0764 18.3711 56.2709 17.5174C55.4637 16.6512 55.0609 15.5881 55.0609 14.3157C55.0609 13.0432 55.4637 11.9801 56.2709 11.1211C57.0764 10.2603 58.0584 9.82715 59.2085 9.82715C59.781 9.82715 60.327 9.95422 60.8479 10.1905C61.3672 10.4285 61.7899 10.7506 62.0962 11.1479L61.4005 11.9032C60.8662 11.2249 60.1389 10.8902 59.2085 10.8902C58.3697 10.8902 57.6423 11.2052 57.0248 11.8405C56.414 12.4777 56.1078 13.3027 56.1078 14.3157C56.1078 15.3286 56.414 16.1608 57.0248 16.798C57.6423 17.4261 58.3697 17.7483 59.2085 17.7483C60.0989 17.7483 60.8479 17.4261 61.4388 16.7908C61.8282 16.3702 62.0496 15.7904 62.1078 15.0494H59.2085V14.015H63.0765C63.1231 14.2387 63.1364 14.4553 63.1364 14.6647Z" fill="white" stroke="white" stroke-width="0.16" stroke-miterlimit="10"/>
<path d="M69.2729 11.078H65.6396V13.7982H68.9151V14.8326H65.6396V17.5528H69.2729V18.6069H64.6111V10.0239H69.2729V11.078Z" fill="white" stroke="white" stroke-width="0.16" stroke-miterlimit="10"/>
<path d="M73.6037 18.6069H72.5751V11.078H70.3465V10.0239H75.8339V11.078H73.6037V18.6069Z" fill="white" stroke="white" stroke-width="0.16" stroke-miterlimit="10"/>
<path d="M79.8051 18.6069V10.0239H80.8321V18.6069H79.8051Z" fill="white" stroke="white" stroke-width="0.16" stroke-miterlimit="10"/>
<path d="M85.3841 18.6069H84.3638V11.078H82.1269V10.0239H87.621V11.078H85.3841V18.6069Z" fill="white" stroke="white" stroke-width="0.16" stroke-miterlimit="10"/>
<path d="M98.0101 17.5031C97.2228 18.3711 96.2475 18.8042 95.0841 18.8042C93.914 18.8042 92.9387 18.3711 92.1515 17.5031C91.3659 16.6369 90.9748 15.5738 90.9748 14.3157C90.9748 13.0575 91.3659 11.9945 92.1515 11.1282C92.9387 10.2603 93.914 9.82715 95.0841 9.82715C96.2408 9.82715 97.2162 10.2603 98.0034 11.1354C98.7957 12.0088 99.1868 13.0647 99.1868 14.3157C99.1868 15.5738 98.7957 16.6369 98.0101 17.5031ZM92.9121 16.7836C93.5046 17.4261 94.2253 17.7483 95.0841 17.7483C95.9363 17.7483 96.6636 17.4261 97.2495 16.7836C97.8403 16.1412 98.1399 15.3161 98.1399 14.3157C98.1399 13.3152 97.8403 12.4902 97.2495 11.8477C96.6636 11.2052 95.9363 10.8831 95.0841 10.8831C94.2253 10.8831 93.5046 11.2052 92.9121 11.8477C92.3212 12.4902 92.0217 13.3152 92.0217 14.3157C92.0217 15.3161 92.3212 16.1412 92.9121 16.7836Z" fill="white" stroke="white" stroke-width="0.16" stroke-miterlimit="10"/>
<path d="M100.63 18.6069V10.0239H101.878L105.759 16.6992H105.804L105.759 15.0492V10.0239H106.786V18.6069H105.714L101.65 11.6024H101.605L101.65 13.2596V18.6069H100.63Z" fill="white" stroke="white" stroke-width="0.16" stroke-miterlimit="10"/>
<path d="M90.7218 31.1401C87.5944 31.1401 85.0396 33.6991 85.0396 37.2297C85.0396 40.7316 87.5944 43.3174 90.7218 43.3174C93.8558 43.3174 96.4106 40.7316 96.4106 37.2297C96.4106 33.6991 93.8558 31.1401 90.7218 31.1401ZM90.7218 40.9195C89.0058 40.9195 87.5295 39.3967 87.5295 37.2297C87.5295 35.034 89.0058 33.538 90.7218 33.538C92.4377 33.538 93.9207 35.034 93.9207 37.2297C93.9207 39.3967 92.4377 40.9195 90.7218 40.9195ZM78.3238 31.1401C75.1898 31.1401 72.6417 33.6991 72.6417 37.2297C72.6417 40.7316 75.1898 43.3174 78.3238 43.3174C81.4562 43.3174 84.006 40.7316 84.006 37.2297C84.006 33.6991 81.4562 31.1401 78.3238 31.1401ZM78.3238 40.9195C76.6062 40.9195 75.1249 39.3967 75.1249 37.2297C75.1249 35.034 76.6062 33.538 78.3238 33.538C80.0398 33.538 81.5161 35.034 81.5161 37.2297C81.5161 39.3967 80.0398 40.9195 78.3238 40.9195ZM63.5708 33.0065V35.5941H69.3179C69.1498 37.04 68.7004 38.1029 68.0114 38.8437C67.1725 39.7385 65.866 40.7316 63.5708 40.7316C60.034 40.7316 57.2645 37.6627 57.2645 33.8601C57.2645 30.0575 60.034 26.9886 63.5708 26.9886C65.4832 26.9886 66.8746 27.7921 67.9015 28.8335L69.5975 27.0101C68.1612 25.5356 66.2505 24.4028 63.5708 24.4028C58.7208 24.4028 54.6448 28.6456 54.6448 33.8601C54.6448 39.0746 58.7208 43.3174 63.5708 43.3174C66.1922 43.3174 68.1612 42.394 69.709 40.6618C71.2952 38.9565 71.7895 36.5586 71.7895 34.6224C71.7895 34.0212 71.7429 33.4682 71.6597 33.0065H63.5708ZM123.898 35.0125C123.43 33.6507 121.987 31.1401 119.048 31.1401C116.135 31.1401 113.71 33.6078 113.71 37.2297C113.71 40.6404 116.11 43.3174 119.327 43.3174C121.929 43.3174 123.43 41.612 124.048 40.6189L122.117 39.2356C121.473 40.2485 120.596 40.9195 119.327 40.9195C118.067 40.9195 117.164 40.2986 116.584 39.0746L124.159 35.705L123.898 35.0125ZM116.175 37.04C116.11 34.6922 117.871 33.4897 119.133 33.4897C120.121 33.4897 120.96 34.0212 121.24 34.7817L116.175 37.04ZM110.019 42.947H112.508V25.0524H110.019V42.947ZM105.941 32.4965H105.858C105.298 31.7843 104.232 31.1401 102.88 31.1401C100.044 31.1401 97.4508 33.8172 97.4508 37.2493C97.4508 40.6618 100.044 43.3174 102.88 43.3174C104.232 43.3174 105.298 42.6678 105.858 41.9341H105.941V42.8074C105.941 45.1355 104.784 46.3863 102.918 46.3863C101.397 46.3863 100.453 45.2053 100.064 44.2121L97.8985 45.1838C98.5227 46.7979 100.175 48.7842 102.918 48.7842C105.838 48.7842 108.301 46.9375 108.301 42.4441V31.5106H105.941V32.4965ZM103.093 40.9195C101.377 40.9195 99.9407 39.3752 99.9407 37.2493C99.9407 35.1038 101.377 33.538 103.093 33.538C104.784 33.538 106.117 35.1038 106.117 37.2493C106.117 39.3752 104.784 40.9195 103.093 40.9195ZM135.555 25.0524H129.6V42.947H132.083V36.1667H135.555C138.313 36.1667 141.018 34.0212 141.018 30.6087C141.018 27.198 138.306 25.0524 135.555 25.0524ZM135.62 33.6776H132.083V27.5415H135.62C137.474 27.5415 138.533 29.1968 138.533 30.6087C138.533 31.9937 137.474 33.6776 135.62 33.6776ZM150.97 31.1061C149.176 31.1061 147.311 31.9579 146.543 33.8458L148.747 34.8389C149.221 33.8458 150.093 33.5237 151.015 33.5237C152.304 33.5237 153.61 34.3558 153.63 35.8249V36.0128C153.181 35.7337 152.219 35.3203 151.035 35.3203C148.662 35.3203 146.244 36.725 146.244 39.3466C146.244 41.7445 148.188 43.2888 150.373 43.2888C152.044 43.2888 152.966 42.4781 153.545 41.5351H153.63V42.9183H156.029V36.054C156.029 32.8813 153.825 31.1061 150.97 31.1061ZM150.671 40.9124C149.859 40.9124 148.727 40.4793 148.727 39.3967C148.727 38.0117 150.138 37.4802 151.36 37.4802C152.453 37.4802 152.966 37.7397 153.63 38.0814C153.435 39.7385 152.109 40.9124 150.671 40.9124ZM164.766 31.498L161.912 39.2553H161.827L158.876 31.498H156.198L160.632 42.3386L158.102 48.3708H160.697L167.529 31.498H164.766ZM142.382 42.947H144.872V25.0524H142.382V42.947Z" fill="white"/>
<path d="M13.8942 10.7923C13.5031 11.2325 13.2767 11.9178 13.2767 12.8054V44.4644C13.2767 45.352 13.5031 46.0374 13.8942 46.4776L13.9908 46.5742L30.4914 28.8407V28.422L13.9908 10.6885L13.8942 10.7923Z" fill="url(#paint0_linear_59_601)"/>
<path d="M35.9854 34.7549L30.4913 28.841V28.4222L35.9921 22.5083L36.1153 22.5852L42.6296 26.5702C44.4887 27.7011 44.4887 29.5621 42.6296 30.7001L36.1153 34.6779L35.9854 34.7549Z" fill="url(#paint1_linear_59_601)"/>
<path d="M36.1153 34.6779L30.4914 28.6313L13.8942 46.4776C14.5117 47.1754 15.5186 47.2596 16.6637 46.5617L36.1153 34.6779Z" fill="url(#paint2_linear_59_601)"/>
<path d="M36.1153 22.5847L16.6637 10.7008C15.5186 10.0101 14.5117 10.0942 13.8942 10.7921L30.4914 28.6313L36.1153 22.5847Z" fill="url(#paint3_linear_59_601)"/>
<defs>
<linearGradient id="paint0_linear_59_601" x1="29.0263" y1="44.7941" x2="5.06416" y2="22.5069" gradientUnits="userSpaceOnUse">
<stop stop-color="#00A0FF"/>
<stop offset="0.0066" stop-color="#00A1FF"/>
<stop offset="0.2601" stop-color="#00BEFF"/>
<stop offset="0.5122" stop-color="#00D2FF"/>
<stop offset="0.7604" stop-color="#00DFFF"/>
<stop offset="1" stop-color="#00E3FF"/>
</linearGradient>
<linearGradient id="paint1_linear_59_601" x1="45.0505" y1="28.6296" x2="12.8323" y2="28.6296" gradientUnits="userSpaceOnUse">
<stop stop-color="#FFE000"/>
<stop offset="0.4087" stop-color="#FFBD00"/>
<stop offset="0.7754" stop-color="#FFA500"/>
<stop offset="1" stop-color="#FF9C00"/>
</linearGradient>
<linearGradient id="paint2_linear_59_601" x1="33.0572" y1="25.3443" x2="0.562588" y2="-4.879" gradientUnits="userSpaceOnUse">
<stop stop-color="#FF3A44"/>
<stop offset="1" stop-color="#C31162"/>
</linearGradient>
<linearGradient id="paint3_linear_59_601" x1="9.71634" y1="57.0107" x2="24.2268" y2="43.5148" gradientUnits="userSpaceOnUse">
<stop stop-color="#32A071"/>
<stop offset="0.0685" stop-color="#2DA771"/>
<stop offset="0.4762" stop-color="#15CF74"/>
<stop offset="0.8009" stop-color="#06E775"/>
<stop offset="1" stop-color="#00F076"/>
</linearGradient>
</defs>
</svg>
